<mxfile host="65bd71144e">
    <diagram id="rfGIokJ09Gj-BOzO8d14" name="Page-1">
        <mxGraphModel dx="1364" dy="1095" grid="1" gridSize="10" guides="1" tooltips="1" connect="1" arrows="1" fold="1" page="1" pageScale="1" pageWidth="827" pageHeight="1169" math="0" shadow="0">
            <root>
                <mxCell id="0"/>
                <mxCell id="1" parent="0"/>
                <mxCell id="2" value="&lt;font style=&quot;font-size: 16px;&quot;&gt;Index (page d&#39;accueil) on phone&lt;/font&gt;" style="text;html=1;align=center;verticalAlign=middle;resizable=0;points=[];autosize=1;strokeColor=none;fillColor=none;" parent="1" vertex="1">
                    <mxGeometry x="40" y="50" width="250" height="30" as="geometry"/>
                </mxCell>
                <mxCell id="3" value="" style="whiteSpace=wrap;html=1;" parent="1" vertex="1">
                    <mxGeometry x="40" y="80" width="480" height="810" as="geometry"/>
                </mxCell>
                <mxCell id="5" value="" style="rounded=0;whiteSpace=wrap;html=1;fillColor=#d5e8d4;strokeColor=#82b366;" parent="1" vertex="1">
                    <mxGeometry x="40" y="80" width="480" height="170" as="geometry"/>
                </mxCell>
                <mxCell id="8" value="Search" style="rounded=1;whiteSpace=wrap;html=1;" parent="1" vertex="1">
                    <mxGeometry x="60" y="147.5" width="200" height="35" as="geometry"/>
                </mxCell>
                <mxCell id="9" value="Submit" style="rounded=1;whiteSpace=wrap;html=1;fillColor=#dae8fc;strokeColor=#6c8ebf;strokeWidth=3;" parent="1" vertex="1">
                    <mxGeometry x="270" y="147.5" width="70" height="35" as="geometry"/>
                </mxCell>
                <mxCell id="61" value="" style="sketch=0;outlineConnect=0;fontColor=#232F3E;gradientColor=none;fillColor=#ED7100;strokeColor=none;dashed=0;verticalLabelPosition=bottom;verticalAlign=top;align=center;html=1;fontSize=12;fontStyle=0;aspect=fixed;pointerEvents=1;shape=mxgraph.aws4.container_registry_image;" parent="1" vertex="1">
                    <mxGeometry x="90" y="510" width="80" height="80" as="geometry"/>
                </mxCell>
                <mxCell id="62" value="" style="sketch=0;outlineConnect=0;fontColor=#232F3E;gradientColor=none;fillColor=#ED7100;strokeColor=none;dashed=0;verticalLabelPosition=bottom;verticalAlign=top;align=center;html=1;fontSize=12;fontStyle=0;aspect=fixed;pointerEvents=1;shape=mxgraph.aws4.container_registry_image;" parent="1" vertex="1">
                    <mxGeometry x="190" y="510" width="80" height="80" as="geometry"/>
                </mxCell>
                <mxCell id="63" value="" style="sketch=0;outlineConnect=0;fontColor=#232F3E;gradientColor=none;fillColor=#ED7100;strokeColor=none;dashed=0;verticalLabelPosition=bottom;verticalAlign=top;align=center;html=1;fontSize=12;fontStyle=0;aspect=fixed;pointerEvents=1;shape=mxgraph.aws4.container_registry_image;" parent="1" vertex="1">
                    <mxGeometry x="290" y="510" width="80" height="80" as="geometry"/>
                </mxCell>
                <mxCell id="64" value="" style="sketch=0;outlineConnect=0;fontColor=#232F3E;gradientColor=none;fillColor=#ED7100;strokeColor=none;dashed=0;verticalLabelPosition=bottom;verticalAlign=top;align=center;html=1;fontSize=12;fontStyle=0;aspect=fixed;pointerEvents=1;shape=mxgraph.aws4.container_registry_image;" parent="1" vertex="1">
                    <mxGeometry x="390" y="510" width="80" height="80" as="geometry"/>
                </mxCell>
                <mxCell id="65" value="" style="rounded=0;whiteSpace=wrap;html=1;fillColor=#d5e8d4;strokeColor=#82b366;" parent="1" vertex="1">
                    <mxGeometry x="40" y="810" width="480" height="80" as="geometry"/>
                </mxCell>
                <mxCell id="68" value="copyrights" style="rounded=0;whiteSpace=wrap;html=1;" parent="1" vertex="1">
                    <mxGeometry x="210" y="865" width="140" height="20" as="geometry"/>
                </mxCell>
                <mxCell id="69" value="Popular series" style="text;html=1;align=center;verticalAlign=middle;whiteSpace=wrap;rounded=0;" parent="1" vertex="1">
                    <mxGeometry x="205" y="470" width="150" height="30" as="geometry"/>
                </mxCell>
                <mxCell id="70" value="" style="sketch=0;outlineConnect=0;fontColor=#232F3E;gradientColor=none;fillColor=#ED7100;strokeColor=none;dashed=0;verticalLabelPosition=bottom;verticalAlign=top;align=center;html=1;fontSize=12;fontStyle=0;aspect=fixed;pointerEvents=1;shape=mxgraph.aws4.container_registry_image;" parent="1" vertex="1">
                    <mxGeometry x="90" y="350" width="80" height="80" as="geometry"/>
                </mxCell>
                <mxCell id="71" value="" style="sketch=0;outlineConnect=0;fontColor=#232F3E;gradientColor=none;fillColor=#ED7100;strokeColor=none;dashed=0;verticalLabelPosition=bottom;verticalAlign=top;align=center;html=1;fontSize=12;fontStyle=0;aspect=fixed;pointerEvents=1;shape=mxgraph.aws4.container_registry_image;" parent="1" vertex="1">
                    <mxGeometry x="190" y="350" width="80" height="80" as="geometry"/>
                </mxCell>
                <mxCell id="72" value="" style="sketch=0;outlineConnect=0;fontColor=#232F3E;gradientColor=none;fillColor=#ED7100;strokeColor=none;dashed=0;verticalLabelPosition=bottom;verticalAlign=top;align=center;html=1;fontSize=12;fontStyle=0;aspect=fixed;pointerEvents=1;shape=mxgraph.aws4.container_registry_image;" parent="1" vertex="1">
                    <mxGeometry x="290" y="350" width="80" height="80" as="geometry"/>
                </mxCell>
                <mxCell id="73" value="" style="sketch=0;outlineConnect=0;fontColor=#232F3E;gradientColor=none;fillColor=#ED7100;strokeColor=none;dashed=0;verticalLabelPosition=bottom;verticalAlign=top;align=center;html=1;fontSize=12;fontStyle=0;aspect=fixed;pointerEvents=1;shape=mxgraph.aws4.container_registry_image;" parent="1" vertex="1">
                    <mxGeometry x="390" y="350" width="80" height="80" as="geometry"/>
                </mxCell>
                <mxCell id="74" value="Popular movies" style="text;html=1;align=center;verticalAlign=middle;whiteSpace=wrap;rounded=0;" parent="1" vertex="1">
                    <mxGeometry x="205" y="310" width="150" height="30" as="geometry"/>
                </mxCell>
                <mxCell id="75" value="&lt;font style=&quot;font-size: 16px;&quot;&gt;Index (page d&#39;accueil) When connected&amp;nbsp;&lt;/font&gt;&lt;span style=&quot;color: rgb(63, 63, 63); font-size: 16px;&quot;&gt;on phone&lt;/span&gt;" style="text;html=1;align=center;verticalAlign=middle;resizable=0;points=[];autosize=1;strokeColor=none;fillColor=none;" parent="1" vertex="1">
                    <mxGeometry x="640" y="50" width="380" height="30" as="geometry"/>
                </mxCell>
                <mxCell id="76" value="" style="whiteSpace=wrap;html=1;" parent="1" vertex="1">
                    <mxGeometry x="640" y="80" width="480" height="810" as="geometry"/>
                </mxCell>
                <mxCell id="77" value="" style="rounded=0;whiteSpace=wrap;html=1;fillColor=#d5e8d4;strokeColor=#82b366;" parent="1" vertex="1">
                    <mxGeometry x="640" y="80" width="480" height="170" as="geometry"/>
                </mxCell>
                <mxCell id="78" value="" style="ellipse;whiteSpace=wrap;html=1;aspect=fixed;" parent="1" vertex="1">
                    <mxGeometry x="1013" y="125" width="80" height="80" as="geometry"/>
                </mxCell>
                <mxCell id="79" value="" style="shape=umlActor;verticalLabelPosition=bottom;verticalAlign=top;html=1;outlineConnect=0;" parent="1" vertex="1">
                    <mxGeometry x="1038" y="135" width="30" height="60" as="geometry"/>
                </mxCell>
                <mxCell id="80" value="Search" style="rounded=1;whiteSpace=wrap;html=1;" parent="1" vertex="1">
                    <mxGeometry x="660" y="147.5" width="200" height="35" as="geometry"/>
                </mxCell>
                <mxCell id="81" value="Submit" style="rounded=1;whiteSpace=wrap;html=1;fillColor=#dae8fc;strokeColor=#6c8ebf;strokeWidth=3;" parent="1" vertex="1">
                    <mxGeometry x="870" y="147.5" width="70" height="35" as="geometry"/>
                </mxCell>
                <mxCell id="82" value="" style="sketch=0;outlineConnect=0;fontColor=#232F3E;gradientColor=none;fillColor=#ED7100;strokeColor=none;dashed=0;verticalLabelPosition=bottom;verticalAlign=top;align=center;html=1;fontSize=12;fontStyle=0;aspect=fixed;pointerEvents=1;shape=mxgraph.aws4.container_registry_image;" parent="1" vertex="1">
                    <mxGeometry x="690" y="510" width="80" height="80" as="geometry"/>
                </mxCell>
                <mxCell id="83" value="" style="sketch=0;outlineConnect=0;fontColor=#232F3E;gradientColor=none;fillColor=#ED7100;strokeColor=none;dashed=0;verticalLabelPosition=bottom;verticalAlign=top;align=center;html=1;fontSize=12;fontStyle=0;aspect=fixed;pointerEvents=1;shape=mxgraph.aws4.container_registry_image;" parent="1" vertex="1">
                    <mxGeometry x="790" y="510" width="80" height="80" as="geometry"/>
                </mxCell>
                <mxCell id="84" value="" style="sketch=0;outlineConnect=0;fontColor=#232F3E;gradientColor=none;fillColor=#ED7100;strokeColor=none;dashed=0;verticalLabelPosition=bottom;verticalAlign=top;align=center;html=1;fontSize=12;fontStyle=0;aspect=fixed;pointerEvents=1;shape=mxgraph.aws4.container_registry_image;" parent="1" vertex="1">
                    <mxGeometry x="890" y="510" width="80" height="80" as="geometry"/>
                </mxCell>
                <mxCell id="85" value="" style="sketch=0;outlineConnect=0;fontColor=#232F3E;gradientColor=none;fillColor=#ED7100;strokeColor=none;dashed=0;verticalLabelPosition=bottom;verticalAlign=top;align=center;html=1;fontSize=12;fontStyle=0;aspect=fixed;pointerEvents=1;shape=mxgraph.aws4.container_registry_image;" parent="1" vertex="1">
                    <mxGeometry x="990" y="510" width="80" height="80" as="geometry"/>
                </mxCell>
                <mxCell id="89" value="Popular series" style="text;html=1;align=center;verticalAlign=middle;whiteSpace=wrap;rounded=0;" parent="1" vertex="1">
                    <mxGeometry x="805" y="470" width="150" height="30" as="geometry"/>
                </mxCell>
                <mxCell id="90" value="" style="sketch=0;outlineConnect=0;fontColor=#232F3E;gradientColor=none;fillColor=#ED7100;strokeColor=none;dashed=0;verticalLabelPosition=bottom;verticalAlign=top;align=center;html=1;fontSize=12;fontStyle=0;aspect=fixed;pointerEvents=1;shape=mxgraph.aws4.container_registry_image;" parent="1" vertex="1">
                    <mxGeometry x="690" y="350" width="80" height="80" as="geometry"/>
                </mxCell>
                <mxCell id="91" value="" style="sketch=0;outlineConnect=0;fontColor=#232F3E;gradientColor=none;fillColor=#ED7100;strokeColor=none;dashed=0;verticalLabelPosition=bottom;verticalAlign=top;align=center;html=1;fontSize=12;fontStyle=0;aspect=fixed;pointerEvents=1;shape=mxgraph.aws4.container_registry_image;" parent="1" vertex="1">
                    <mxGeometry x="790" y="350" width="80" height="80" as="geometry"/>
                </mxCell>
                <mxCell id="92" value="" style="sketch=0;outlineConnect=0;fontColor=#232F3E;gradientColor=none;fillColor=#ED7100;strokeColor=none;dashed=0;verticalLabelPosition=bottom;verticalAlign=top;align=center;html=1;fontSize=12;fontStyle=0;aspect=fixed;pointerEvents=1;shape=mxgraph.aws4.container_registry_image;" parent="1" vertex="1">
                    <mxGeometry x="890" y="350" width="80" height="80" as="geometry"/>
                </mxCell>
                <mxCell id="93" value="" style="sketch=0;outlineConnect=0;fontColor=#232F3E;gradientColor=none;fillColor=#ED7100;strokeColor=none;dashed=0;verticalLabelPosition=bottom;verticalAlign=top;align=center;html=1;fontSize=12;fontStyle=0;aspect=fixed;pointerEvents=1;shape=mxgraph.aws4.container_registry_image;" parent="1" vertex="1">
                    <mxGeometry x="990" y="350" width="80" height="80" as="geometry"/>
                </mxCell>
                <mxCell id="94" value="Popular movies" style="text;html=1;align=center;verticalAlign=middle;whiteSpace=wrap;rounded=0;" parent="1" vertex="1">
                    <mxGeometry x="805" y="310" width="150" height="30" as="geometry"/>
                </mxCell>
                <mxCell id="99" value="login" style="rounded=1;whiteSpace=wrap;html=1;fillColor=#dae8fc;strokeColor=#6c8ebf;strokeWidth=3;" parent="1" vertex="1">
                    <mxGeometry x="360" y="110" width="70" height="35" as="geometry"/>
                </mxCell>
                <mxCell id="100" value="sign up" style="rounded=1;whiteSpace=wrap;html=1;fillColor=#dae8fc;strokeColor=#6c8ebf;strokeWidth=3;" parent="1" vertex="1">
                    <mxGeometry x="440" y="110" width="70" height="35" as="geometry"/>
                </mxCell>
                <mxCell id="102" value="All movies" style="rounded=0;whiteSpace=wrap;html=1;" parent="1" vertex="1">
                    <mxGeometry x="85" y="210" width="130" height="30" as="geometry"/>
                </mxCell>
                <mxCell id="103" value="All series" style="rounded=0;whiteSpace=wrap;html=1;" parent="1" vertex="1">
                    <mxGeometry x="215" y="210" width="130" height="30" as="geometry"/>
                </mxCell>
                <mxCell id="104" value="All actors" style="rounded=0;whiteSpace=wrap;html=1;" parent="1" vertex="1">
                    <mxGeometry x="345" y="210" width="130" height="30" as="geometry"/>
                </mxCell>
                <mxCell id="105" value="All movies" style="rounded=0;whiteSpace=wrap;html=1;" parent="1" vertex="1">
                    <mxGeometry x="685" y="210" width="130" height="30" as="geometry"/>
                </mxCell>
                <mxCell id="106" value="All series" style="rounded=0;whiteSpace=wrap;html=1;" parent="1" vertex="1">
                    <mxGeometry x="815" y="210" width="130" height="30" as="geometry"/>
                </mxCell>
                <mxCell id="107" value="All actors" style="rounded=0;whiteSpace=wrap;html=1;" parent="1" vertex="1">
                    <mxGeometry x="945" y="210" width="130" height="30" as="geometry"/>
                </mxCell>
                <mxCell id="109" value="about" style="rounded=0;whiteSpace=wrap;html=1;" parent="1" vertex="1">
                    <mxGeometry x="60" y="824" width="300" height="30" as="geometry"/>
                </mxCell>
                <mxCell id="111" value="" style="sketch=0;html=1;aspect=fixed;strokeColor=none;shadow=0;fillColor=#3B8DF1;verticalAlign=top;labelPosition=center;verticalLabelPosition=bottom;shape=mxgraph.gcp2.globe_world" parent="1" vertex="1">
                    <mxGeometry x="490" y="90" width="15.79" height="15" as="geometry"/>
                </mxCell>
                <mxCell id="112" value="" style="endArrow=classic;html=1;" parent="1" target="113" edge="1">
                    <mxGeometry width="50" height="50" relative="1" as="geometry">
                        <mxPoint x="498" y="90" as="sourcePoint"/>
                        <mxPoint x="548" y="40" as="targetPoint"/>
                    </mxGeometry>
                </mxCell>
                <mxCell id="113" value="Change language" style="text;html=1;align=center;verticalAlign=middle;whiteSpace=wrap;rounded=0;" parent="1" vertex="1">
                    <mxGeometry x="490" y="40" width="98" height="20" as="geometry"/>
                </mxCell>
                <mxCell id="114" value="" style="sketch=0;html=1;aspect=fixed;strokeColor=none;shadow=0;fillColor=#3B8DF1;verticalAlign=top;labelPosition=center;verticalLabelPosition=bottom;shape=mxgraph.gcp2.globe_world" parent="1" vertex="1">
                    <mxGeometry x="1098" y="90" width="15.79" height="15" as="geometry"/>
                </mxCell>
                <mxCell id="115" value="" style="endArrow=classic;html=1;" parent="1" target="116" edge="1">
                    <mxGeometry width="50" height="50" relative="1" as="geometry">
                        <mxPoint x="1106" y="90" as="sourcePoint"/>
                        <mxPoint x="1156" y="40" as="targetPoint"/>
                    </mxGeometry>
                </mxCell>
                <mxCell id="116" value="Change language" style="text;html=1;align=center;verticalAlign=middle;whiteSpace=wrap;rounded=0;" parent="1" vertex="1">
                    <mxGeometry x="1098" y="40" width="98" height="20" as="geometry"/>
                </mxCell>
                <mxCell id="117" value="" style="rounded=0;whiteSpace=wrap;html=1;" parent="1" vertex="1">
                    <mxGeometry x="20" y="1200" width="1920" height="1080" as="geometry"/>
                </mxCell>
                <mxCell id="118" value="" style="rounded=0;whiteSpace=wrap;html=1;fillColor=#d5e8d4;strokeColor=#82b366;" parent="1" vertex="1">
                    <mxGeometry x="20" y="1200" width="1920" height="300" as="geometry"/>
                </mxCell>
                <mxCell id="119" value="" style="rounded=0;whiteSpace=wrap;html=1;fillColor=#d5e8d4;strokeColor=#82b366;" parent="1" vertex="1">
                    <mxGeometry x="20" y="2080" width="1920" height="200" as="geometry"/>
                </mxCell>
                <mxCell id="120" value="&lt;font style=&quot;font-size: 30px;&quot;&gt;Search&lt;/font&gt;" style="rounded=1;whiteSpace=wrap;html=1;" parent="1" vertex="1">
                    <mxGeometry x="545" y="1305" width="650" height="90" as="geometry"/>
                </mxCell>
                <mxCell id="121" value="&lt;font style=&quot;font-size: 30px;&quot;&gt;Submit&lt;/font&gt;" style="rounded=1;whiteSpace=wrap;html=1;fillColor=#dae8fc;strokeColor=#6c8ebf;strokeWidth=3;" parent="1" vertex="1">
                    <mxGeometry x="1215" y="1305" width="200" height="90" as="geometry"/>
                </mxCell>
                <mxCell id="122" value="&lt;font style=&quot;font-size: 20px;&quot;&gt;login&lt;/font&gt;" style="rounded=1;whiteSpace=wrap;html=1;fillColor=#dae8fc;strokeColor=#6c8ebf;strokeWidth=3;" parent="1" vertex="1">
                    <mxGeometry x="1690" y="1240" width="90" height="50" as="geometry"/>
                </mxCell>
                <mxCell id="123" value="&lt;font style=&quot;font-size: 20px;&quot;&gt;sign up&lt;/font&gt;" style="rounded=1;whiteSpace=wrap;html=1;fillColor=#dae8fc;strokeColor=#6c8ebf;strokeWidth=3;" parent="1" vertex="1">
                    <mxGeometry x="1800" y="1240" width="90" height="50" as="geometry"/>
                </mxCell>
                <mxCell id="124" value="" style="endArrow=classic;html=1;" parent="1" target="125" edge="1">
                    <mxGeometry width="50" height="50" relative="1" as="geometry">
                        <mxPoint x="1918" y="1210" as="sourcePoint"/>
                        <mxPoint x="1968" y="1160" as="targetPoint"/>
                    </mxGeometry>
                </mxCell>
                <mxCell id="125" value="Change language" style="text;html=1;align=center;verticalAlign=middle;whiteSpace=wrap;rounded=0;" parent="1" vertex="1">
                    <mxGeometry x="1910" y="1160" width="98" height="20" as="geometry"/>
                </mxCell>
                <mxCell id="126" value="" style="sketch=0;html=1;aspect=fixed;strokeColor=none;shadow=0;fillColor=#3B8DF1;verticalAlign=top;labelPosition=center;verticalLabelPosition=bottom;shape=mxgraph.gcp2.globe_world" parent="1" vertex="1">
                    <mxGeometry x="1900" y="1210" width="25.79" height="24.5" as="geometry"/>
                </mxCell>
                <mxCell id="128" value="&lt;font style=&quot;font-size: 40px;&quot;&gt;All movies&lt;/font&gt;" style="rounded=1;whiteSpace=wrap;html=1;fillColor=#dae8fc;strokeColor=#6c8ebf;strokeWidth=3;" parent="1" vertex="1">
                    <mxGeometry x="20" y="1500" width="640" height="100" as="geometry"/>
                </mxCell>
                <mxCell id="129" value="&lt;font style=&quot;font-size: 40px;&quot;&gt;All series&lt;/font&gt;" style="rounded=1;whiteSpace=wrap;html=1;fillColor=#dae8fc;strokeColor=#6c8ebf;strokeWidth=3;" parent="1" vertex="1">
                    <mxGeometry x="660" y="1500" width="640" height="100" as="geometry"/>
                </mxCell>
                <mxCell id="130" value="&lt;font style=&quot;font-size: 40px;&quot;&gt;All actors&lt;/font&gt;" style="rounded=1;whiteSpace=wrap;html=1;fillColor=#dae8fc;strokeColor=#6c8ebf;strokeWidth=3;" parent="1" vertex="1">
                    <mxGeometry x="1300" y="1500" width="640" height="100" as="geometry"/>
                </mxCell>
                <mxCell id="136" value="&lt;font style=&quot;font-size: 20px;&quot;&gt;Popular series&lt;/font&gt;" style="text;html=1;align=center;verticalAlign=middle;whiteSpace=wrap;rounded=0;" parent="1" vertex="1">
                    <mxGeometry x="905" y="1630" width="150" height="30" as="geometry"/>
                </mxCell>
                <mxCell id="141" value="&lt;font style=&quot;font-size: 20px;&quot;&gt;Popular movies&lt;/font&gt;" style="text;html=1;align=center;verticalAlign=middle;whiteSpace=wrap;rounded=0;" parent="1" vertex="1">
                    <mxGeometry x="265" y="1630" width="150" height="30" as="geometry"/>
                </mxCell>
                <mxCell id="142" value="&lt;font style=&quot;font-size: 20px;&quot;&gt;Popular actors&lt;/font&gt;" style="text;html=1;align=center;verticalAlign=middle;whiteSpace=wrap;rounded=0;" parent="1" vertex="1">
                    <mxGeometry x="1545" y="1630" width="150" height="30" as="geometry"/>
                </mxCell>
                <mxCell id="143" value="" style="sketch=0;outlineConnect=0;fontColor=#232F3E;gradientColor=none;fillColor=#ED7100;strokeColor=none;dashed=0;verticalLabelPosition=bottom;verticalAlign=top;align=center;html=1;fontSize=12;fontStyle=0;aspect=fixed;pointerEvents=1;shape=mxgraph.aws4.container_registry_image;" parent="1" vertex="1">
                    <mxGeometry x="350" y="1730" width="80" height="80" as="geometry"/>
                </mxCell>
                <mxCell id="152" value="" style="sketch=0;outlineConnect=0;fontColor=#232F3E;gradientColor=none;fillColor=#ED7100;strokeColor=none;dashed=0;verticalLabelPosition=bottom;verticalAlign=top;align=center;html=1;fontSize=12;fontStyle=0;aspect=fixed;pointerEvents=1;shape=mxgraph.aws4.container_registry_image;" parent="1" vertex="1">
                    <mxGeometry x="445" y="1730" width="80" height="80" as="geometry"/>
                </mxCell>
                <mxCell id="155" value="" style="sketch=0;outlineConnect=0;fontColor=#232F3E;gradientColor=none;fillColor=#ED7100;strokeColor=none;dashed=0;verticalLabelPosition=bottom;verticalAlign=top;align=center;html=1;fontSize=12;fontStyle=0;aspect=fixed;pointerEvents=1;shape=mxgraph.aws4.container_registry_image;" parent="1" vertex="1">
                    <mxGeometry x="350" y="1830" width="80" height="80" as="geometry"/>
                </mxCell>
                <mxCell id="156" value="" style="sketch=0;outlineConnect=0;fontColor=#232F3E;gradientColor=none;fillColor=#ED7100;strokeColor=none;dashed=0;verticalLabelPosition=bottom;verticalAlign=top;align=center;html=1;fontSize=12;fontStyle=0;aspect=fixed;pointerEvents=1;shape=mxgraph.aws4.container_registry_image;" parent="1" vertex="1">
                    <mxGeometry x="445" y="1830" width="80" height="80" as="geometry"/>
                </mxCell>
                <mxCell id="157" value="" style="sketch=0;outlineConnect=0;fontColor=#232F3E;gradientColor=none;fillColor=#ED7100;strokeColor=none;dashed=0;verticalLabelPosition=bottom;verticalAlign=top;align=center;html=1;fontSize=12;fontStyle=0;aspect=fixed;pointerEvents=1;shape=mxgraph.aws4.container_registry_image;" parent="1" vertex="1">
                    <mxGeometry x="155" y="1730" width="80" height="80" as="geometry"/>
                </mxCell>
                <mxCell id="158" value="" style="sketch=0;outlineConnect=0;fontColor=#232F3E;gradientColor=none;fillColor=#ED7100;strokeColor=none;dashed=0;verticalLabelPosition=bottom;verticalAlign=top;align=center;html=1;fontSize=12;fontStyle=0;aspect=fixed;pointerEvents=1;shape=mxgraph.aws4.container_registry_image;" parent="1" vertex="1">
                    <mxGeometry x="249.99999999999997" y="1730" width="80" height="80" as="geometry"/>
                </mxCell>
                <mxCell id="159" value="" style="sketch=0;outlineConnect=0;fontColor=#232F3E;gradientColor=none;fillColor=#ED7100;strokeColor=none;dashed=0;verticalLabelPosition=bottom;verticalAlign=top;align=center;html=1;fontSize=12;fontStyle=0;aspect=fixed;pointerEvents=1;shape=mxgraph.aws4.container_registry_image;" parent="1" vertex="1">
                    <mxGeometry x="155" y="1830" width="80" height="80" as="geometry"/>
                </mxCell>
                <mxCell id="160" value="" style="sketch=0;outlineConnect=0;fontColor=#232F3E;gradientColor=none;fillColor=#ED7100;strokeColor=none;dashed=0;verticalLabelPosition=bottom;verticalAlign=top;align=center;html=1;fontSize=12;fontStyle=0;aspect=fixed;pointerEvents=1;shape=mxgraph.aws4.container_registry_image;" parent="1" vertex="1">
                    <mxGeometry x="249.99999999999997" y="1830" width="80" height="80" as="geometry"/>
                </mxCell>
                <mxCell id="161" value="" style="sketch=0;outlineConnect=0;fontColor=#232F3E;gradientColor=none;fillColor=#ED7100;strokeColor=none;dashed=0;verticalLabelPosition=bottom;verticalAlign=top;align=center;html=1;fontSize=12;fontStyle=0;aspect=fixed;pointerEvents=1;shape=mxgraph.aws4.container_registry_image;" parent="1" vertex="1">
                    <mxGeometry x="350" y="1930" width="80" height="80" as="geometry"/>
                </mxCell>
                <mxCell id="162" value="" style="sketch=0;outlineConnect=0;fontColor=#232F3E;gradientColor=none;fillColor=#ED7100;strokeColor=none;dashed=0;verticalLabelPosition=bottom;verticalAlign=top;align=center;html=1;fontSize=12;fontStyle=0;aspect=fixed;pointerEvents=1;shape=mxgraph.aws4.container_registry_image;" parent="1" vertex="1">
                    <mxGeometry x="445" y="1930" width="80" height="80" as="geometry"/>
                </mxCell>
                <mxCell id="165" value="" style="sketch=0;outlineConnect=0;fontColor=#232F3E;gradientColor=none;fillColor=#ED7100;strokeColor=none;dashed=0;verticalLabelPosition=bottom;verticalAlign=top;align=center;html=1;fontSize=12;fontStyle=0;aspect=fixed;pointerEvents=1;shape=mxgraph.aws4.container_registry_image;" parent="1" vertex="1">
                    <mxGeometry x="155" y="1930" width="80" height="80" as="geometry"/>
                </mxCell>
                <mxCell id="166" value="" style="sketch=0;outlineConnect=0;fontColor=#232F3E;gradientColor=none;fillColor=#ED7100;strokeColor=none;dashed=0;verticalLabelPosition=bottom;verticalAlign=top;align=center;html=1;fontSize=12;fontStyle=0;aspect=fixed;pointerEvents=1;shape=mxgraph.aws4.container_registry_image;" parent="1" vertex="1">
                    <mxGeometry x="249.99999999999997" y="1930" width="80" height="80" as="geometry"/>
                </mxCell>
                <mxCell id="169" value="" style="sketch=0;outlineConnect=0;fontColor=#232F3E;gradientColor=none;fillColor=#ED7100;strokeColor=none;dashed=0;verticalLabelPosition=bottom;verticalAlign=top;align=center;html=1;fontSize=12;fontStyle=0;aspect=fixed;pointerEvents=1;shape=mxgraph.aws4.container_registry_image;" parent="1" vertex="1">
                    <mxGeometry x="1015.9000000000002" y="1730" width="80" height="80" as="geometry"/>
                </mxCell>
                <mxCell id="170" value="" style="sketch=0;outlineConnect=0;fontColor=#232F3E;gradientColor=none;fillColor=#ED7100;strokeColor=none;dashed=0;verticalLabelPosition=bottom;verticalAlign=top;align=center;html=1;fontSize=12;fontStyle=0;aspect=fixed;pointerEvents=1;shape=mxgraph.aws4.container_registry_image;" parent="1" vertex="1">
                    <mxGeometry x="1110.9" y="1730" width="80" height="80" as="geometry"/>
                </mxCell>
                <mxCell id="171" value="" style="sketch=0;outlineConnect=0;fontColor=#232F3E;gradientColor=none;fillColor=#ED7100;strokeColor=none;dashed=0;verticalLabelPosition=bottom;verticalAlign=top;align=center;html=1;fontSize=12;fontStyle=0;aspect=fixed;pointerEvents=1;shape=mxgraph.aws4.container_registry_image;" parent="1" vertex="1">
                    <mxGeometry x="1015.9000000000002" y="1830" width="80" height="80" as="geometry"/>
                </mxCell>
                <mxCell id="172" value="" style="sketch=0;outlineConnect=0;fontColor=#232F3E;gradientColor=none;fillColor=#ED7100;strokeColor=none;dashed=0;verticalLabelPosition=bottom;verticalAlign=top;align=center;html=1;fontSize=12;fontStyle=0;aspect=fixed;pointerEvents=1;shape=mxgraph.aws4.container_registry_image;" parent="1" vertex="1">
                    <mxGeometry x="1110.9" y="1830" width="80" height="80" as="geometry"/>
                </mxCell>
                <mxCell id="173" value="" style="sketch=0;outlineConnect=0;fontColor=#232F3E;gradientColor=none;fillColor=#ED7100;strokeColor=none;dashed=0;verticalLabelPosition=bottom;verticalAlign=top;align=center;html=1;fontSize=12;fontStyle=0;aspect=fixed;pointerEvents=1;shape=mxgraph.aws4.container_registry_image;" parent="1" vertex="1">
                    <mxGeometry x="820.9" y="1730" width="80" height="80" as="geometry"/>
                </mxCell>
                <mxCell id="174" value="" style="sketch=0;outlineConnect=0;fontColor=#232F3E;gradientColor=none;fillColor=#ED7100;strokeColor=none;dashed=0;verticalLabelPosition=bottom;verticalAlign=top;align=center;html=1;fontSize=12;fontStyle=0;aspect=fixed;pointerEvents=1;shape=mxgraph.aws4.container_registry_image;" parent="1" vertex="1">
                    <mxGeometry x="915.9" y="1730" width="80" height="80" as="geometry"/>
                </mxCell>
                <mxCell id="175" value="" style="sketch=0;outlineConnect=0;fontColor=#232F3E;gradientColor=none;fillColor=#ED7100;strokeColor=none;dashed=0;verticalLabelPosition=bottom;verticalAlign=top;align=center;html=1;fontSize=12;fontStyle=0;aspect=fixed;pointerEvents=1;shape=mxgraph.aws4.container_registry_image;" parent="1" vertex="1">
                    <mxGeometry x="820.9" y="1830" width="80" height="80" as="geometry"/>
                </mxCell>
                <mxCell id="176" value="" style="sketch=0;outlineConnect=0;fontColor=#232F3E;gradientColor=none;fillColor=#ED7100;strokeColor=none;dashed=0;verticalLabelPosition=bottom;verticalAlign=top;align=center;html=1;fontSize=12;fontStyle=0;aspect=fixed;pointerEvents=1;shape=mxgraph.aws4.container_registry_image;" parent="1" vertex="1">
                    <mxGeometry x="915.9" y="1830" width="80" height="80" as="geometry"/>
                </mxCell>
                <mxCell id="177" value="" style="sketch=0;outlineConnect=0;fontColor=#232F3E;gradientColor=none;fillColor=#ED7100;strokeColor=none;dashed=0;verticalLabelPosition=bottom;verticalAlign=top;align=center;html=1;fontSize=12;fontStyle=0;aspect=fixed;pointerEvents=1;shape=mxgraph.aws4.container_registry_image;" parent="1" vertex="1">
                    <mxGeometry x="1015.9000000000002" y="1930" width="80" height="80" as="geometry"/>
                </mxCell>
                <mxCell id="178" value="" style="sketch=0;outlineConnect=0;fontColor=#232F3E;gradientColor=none;fillColor=#ED7100;strokeColor=none;dashed=0;verticalLabelPosition=bottom;verticalAlign=top;align=center;html=1;fontSize=12;fontStyle=0;aspect=fixed;pointerEvents=1;shape=mxgraph.aws4.container_registry_image;" parent="1" vertex="1">
                    <mxGeometry x="1110.9" y="1930" width="80" height="80" as="geometry"/>
                </mxCell>
                <mxCell id="179" value="" style="sketch=0;outlineConnect=0;fontColor=#232F3E;gradientColor=none;fillColor=#ED7100;strokeColor=none;dashed=0;verticalLabelPosition=bottom;verticalAlign=top;align=center;html=1;fontSize=12;fontStyle=0;aspect=fixed;pointerEvents=1;shape=mxgraph.aws4.container_registry_image;" parent="1" vertex="1">
                    <mxGeometry x="820.9" y="1930" width="80" height="80" as="geometry"/>
                </mxCell>
                <mxCell id="180" value="" style="sketch=0;outlineConnect=0;fontColor=#232F3E;gradientColor=none;fillColor=#ED7100;strokeColor=none;dashed=0;verticalLabelPosition=bottom;verticalAlign=top;align=center;html=1;fontSize=12;fontStyle=0;aspect=fixed;pointerEvents=1;shape=mxgraph.aws4.container_registry_image;" parent="1" vertex="1">
                    <mxGeometry x="915.9" y="1930" width="80" height="80" as="geometry"/>
                </mxCell>
                <mxCell id="181" value="" style="sketch=0;outlineConnect=0;fontColor=#232F3E;gradientColor=none;fillColor=#ED7100;strokeColor=none;dashed=0;verticalLabelPosition=bottom;verticalAlign=top;align=center;html=1;fontSize=12;fontStyle=0;aspect=fixed;pointerEvents=1;shape=mxgraph.aws4.container_registry_image;" parent="1" vertex="1">
                    <mxGeometry x="1630" y="1730" width="80" height="80" as="geometry"/>
                </mxCell>
                <mxCell id="182" value="" style="sketch=0;outlineConnect=0;fontColor=#232F3E;gradientColor=none;fillColor=#ED7100;strokeColor=none;dashed=0;verticalLabelPosition=bottom;verticalAlign=top;align=center;html=1;fontSize=12;fontStyle=0;aspect=fixed;pointerEvents=1;shape=mxgraph.aws4.container_registry_image;" parent="1" vertex="1">
                    <mxGeometry x="1725" y="1730" width="80" height="80" as="geometry"/>
                </mxCell>
                <mxCell id="183" value="" style="sketch=0;outlineConnect=0;fontColor=#232F3E;gradientColor=none;fillColor=#ED7100;strokeColor=none;dashed=0;verticalLabelPosition=bottom;verticalAlign=top;align=center;html=1;fontSize=12;fontStyle=0;aspect=fixed;pointerEvents=1;shape=mxgraph.aws4.container_registry_image;" parent="1" vertex="1">
                    <mxGeometry x="1630" y="1830" width="80" height="80" as="geometry"/>
                </mxCell>
                <mxCell id="184" value="" style="sketch=0;outlineConnect=0;fontColor=#232F3E;gradientColor=none;fillColor=#ED7100;strokeColor=none;dashed=0;verticalLabelPosition=bottom;verticalAlign=top;align=center;html=1;fontSize=12;fontStyle=0;aspect=fixed;pointerEvents=1;shape=mxgraph.aws4.container_registry_image;" parent="1" vertex="1">
                    <mxGeometry x="1725" y="1830" width="80" height="80" as="geometry"/>
                </mxCell>
                <mxCell id="185" value="" style="sketch=0;outlineConnect=0;fontColor=#232F3E;gradientColor=none;fillColor=#ED7100;strokeColor=none;dashed=0;verticalLabelPosition=bottom;verticalAlign=top;align=center;html=1;fontSize=12;fontStyle=0;aspect=fixed;pointerEvents=1;shape=mxgraph.aws4.container_registry_image;" parent="1" vertex="1">
                    <mxGeometry x="1435" y="1730" width="80" height="80" as="geometry"/>
                </mxCell>
                <mxCell id="186" value="" style="sketch=0;outlineConnect=0;fontColor=#232F3E;gradientColor=none;fillColor=#ED7100;strokeColor=none;dashed=0;verticalLabelPosition=bottom;verticalAlign=top;align=center;html=1;fontSize=12;fontStyle=0;aspect=fixed;pointerEvents=1;shape=mxgraph.aws4.container_registry_image;" parent="1" vertex="1">
                    <mxGeometry x="1530" y="1730" width="80" height="80" as="geometry"/>
                </mxCell>
                <mxCell id="187" value="" style="sketch=0;outlineConnect=0;fontColor=#232F3E;gradientColor=none;fillColor=#ED7100;strokeColor=none;dashed=0;verticalLabelPosition=bottom;verticalAlign=top;align=center;html=1;fontSize=12;fontStyle=0;aspect=fixed;pointerEvents=1;shape=mxgraph.aws4.container_registry_image;" parent="1" vertex="1">
                    <mxGeometry x="1435" y="1830" width="80" height="80" as="geometry"/>
                </mxCell>
                <mxCell id="188" value="" style="sketch=0;outlineConnect=0;fontColor=#232F3E;gradientColor=none;fillColor=#ED7100;strokeColor=none;dashed=0;verticalLabelPosition=bottom;verticalAlign=top;align=center;html=1;fontSize=12;fontStyle=0;aspect=fixed;pointerEvents=1;shape=mxgraph.aws4.container_registry_image;" parent="1" vertex="1">
                    <mxGeometry x="1530" y="1830" width="80" height="80" as="geometry"/>
                </mxCell>
                <mxCell id="189" value="" style="sketch=0;outlineConnect=0;fontColor=#232F3E;gradientColor=none;fillColor=#ED7100;strokeColor=none;dashed=0;verticalLabelPosition=bottom;verticalAlign=top;align=center;html=1;fontSize=12;fontStyle=0;aspect=fixed;pointerEvents=1;shape=mxgraph.aws4.container_registry_image;" parent="1" vertex="1">
                    <mxGeometry x="1630" y="1930" width="80" height="80" as="geometry"/>
                </mxCell>
                <mxCell id="190" value="" style="sketch=0;outlineConnect=0;fontColor=#232F3E;gradientColor=none;fillColor=#ED7100;strokeColor=none;dashed=0;verticalLabelPosition=bottom;verticalAlign=top;align=center;html=1;fontSize=12;fontStyle=0;aspect=fixed;pointerEvents=1;shape=mxgraph.aws4.container_registry_image;" parent="1" vertex="1">
                    <mxGeometry x="1725" y="1930" width="80" height="80" as="geometry"/>
                </mxCell>
                <mxCell id="191" value="" style="sketch=0;outlineConnect=0;fontColor=#232F3E;gradientColor=none;fillColor=#ED7100;strokeColor=none;dashed=0;verticalLabelPosition=bottom;verticalAlign=top;align=center;html=1;fontSize=12;fontStyle=0;aspect=fixed;pointerEvents=1;shape=mxgraph.aws4.container_registry_image;" parent="1" vertex="1">
                    <mxGeometry x="1435" y="1930" width="80" height="80" as="geometry"/>
                </mxCell>
                <mxCell id="192" value="" style="sketch=0;outlineConnect=0;fontColor=#232F3E;gradientColor=none;fillColor=#ED7100;strokeColor=none;dashed=0;verticalLabelPosition=bottom;verticalAlign=top;align=center;html=1;fontSize=12;fontStyle=0;aspect=fixed;pointerEvents=1;shape=mxgraph.aws4.container_registry_image;" parent="1" vertex="1">
                    <mxGeometry x="1530" y="1930" width="80" height="80" as="geometry"/>
                </mxCell>
                <mxCell id="193" value="" style="dashed=0;outlineConnect=0;html=1;align=center;labelPosition=center;verticalLabelPosition=bottom;verticalAlign=top;shape=mxgraph.webicons.facebook;fillColor=#6294E4;gradientColor=#1A2665" parent="1" vertex="1">
                    <mxGeometry x="1815.79" y="2210" width="50" height="50" as="geometry"/>
                </mxCell>
                <mxCell id="194" value="" style="dashed=0;outlineConnect=0;html=1;align=center;labelPosition=center;verticalLabelPosition=bottom;verticalAlign=top;shape=mxgraph.weblogos.instagram;fillColor=#6FC0E4;gradientColor=#1E305B" parent="1" vertex="1">
                    <mxGeometry x="1755.79" y="2210" width="50" height="50" as="geometry"/>
                </mxCell>
                <mxCell id="195" value="" style="dashed=0;outlineConnect=0;html=1;align=center;labelPosition=center;verticalLabelPosition=bottom;verticalAlign=top;shape=mxgraph.webicons.twitter;fillColor=#49EAF7;strokeColor=none;gradientColor=#137BD0;" parent="1" vertex="1">
                    <mxGeometry x="1875.79" y="2210" width="50" height="50" as="geometry"/>
                </mxCell>
                <mxCell id="201" value="copyrights" style="rounded=0;whiteSpace=wrap;html=1;" parent="1" vertex="1">
                    <mxGeometry x="877.5" y="2212.5" width="205" height="47.5" as="geometry"/>
                </mxCell>
                <mxCell id="202" value="" style="strokeColor=#999999;verticalLabelPosition=bottom;shadow=0;dashed=0;verticalAlign=top;strokeWidth=2;html=1;shape=mxgraph.mockup.misc.copyrightIcon;" parent="1" vertex="1">
                    <mxGeometry x="897.5" y="2223.75" width="25" height="25" as="geometry"/>
                </mxCell>
                <mxCell id="203" value="about" style="rounded=0;whiteSpace=wrap;html=1;" parent="1" vertex="1">
                    <mxGeometry x="680" y="2120" width="600" height="60" as="geometry"/>
                </mxCell>
                <mxCell id="204" value="" style="rounded=0;whiteSpace=wrap;html=1;" parent="1" vertex="1">
                    <mxGeometry x="20.000000000000007" y="2360" width="1920" height="1080" as="geometry"/>
                </mxCell>
                <mxCell id="205" value="" style="rounded=0;whiteSpace=wrap;html=1;fillColor=#d5e8d4;strokeColor=#82b366;" parent="1" vertex="1">
                    <mxGeometry x="20.000000000000007" y="2360" width="1920" height="300" as="geometry"/>
                </mxCell>
                <mxCell id="206" value="" style="rounded=0;whiteSpace=wrap;html=1;fillColor=#d5e8d4;strokeColor=#82b366;" parent="1" vertex="1">
                    <mxGeometry x="20.000000000000007" y="3240" width="1920" height="200" as="geometry"/>
                </mxCell>
                <mxCell id="207" value="&lt;font style=&quot;font-size: 30px;&quot;&gt;Search&lt;/font&gt;" style="rounded=1;whiteSpace=wrap;html=1;" parent="1" vertex="1">
                    <mxGeometry x="545" y="2465" width="650" height="90" as="geometry"/>
                </mxCell>
                <mxCell id="208" value="&lt;font style=&quot;font-size: 30px;&quot;&gt;Submit&lt;/font&gt;" style="rounded=1;whiteSpace=wrap;html=1;fillColor=#dae8fc;strokeColor=#6c8ebf;strokeWidth=3;" parent="1" vertex="1">
                    <mxGeometry x="1215" y="2465" width="200" height="90" as="geometry"/>
                </mxCell>
                <mxCell id="211" value="" style="endArrow=classic;html=1;" parent="1" target="212" edge="1">
                    <mxGeometry width="50" height="50" relative="1" as="geometry">
                        <mxPoint x="1918" y="2370" as="sourcePoint"/>
                        <mxPoint x="1968" y="2320" as="targetPoint"/>
                    </mxGeometry>
                </mxCell>
                <mxCell id="212" value="Change language" style="text;html=1;align=center;verticalAlign=middle;whiteSpace=wrap;rounded=0;" parent="1" vertex="1">
                    <mxGeometry x="1910" y="2320" width="98" height="20" as="geometry"/>
                </mxCell>
                <mxCell id="213" value="" style="sketch=0;html=1;aspect=fixed;strokeColor=none;shadow=0;fillColor=#3B8DF1;verticalAlign=top;labelPosition=center;verticalLabelPosition=bottom;shape=mxgraph.gcp2.globe_world" parent="1" vertex="1">
                    <mxGeometry x="1900" y="2370" width="25.79" height="24.5" as="geometry"/>
                </mxCell>
                <mxCell id="214" value="&lt;font style=&quot;font-size: 40px;&quot;&gt;All movies&lt;/font&gt;" style="rounded=1;whiteSpace=wrap;html=1;fillColor=#dae8fc;strokeColor=#6c8ebf;strokeWidth=3;" parent="1" vertex="1">
                    <mxGeometry x="20.000000000000007" y="2660" width="640" height="100" as="geometry"/>
                </mxCell>
                <mxCell id="215" value="&lt;font style=&quot;font-size: 40px;&quot;&gt;All series&lt;/font&gt;" style="rounded=1;whiteSpace=wrap;html=1;fillColor=#dae8fc;strokeColor=#6c8ebf;strokeWidth=3;" parent="1" vertex="1">
                    <mxGeometry x="660" y="2660" width="640" height="100" as="geometry"/>
                </mxCell>
                <mxCell id="216" value="&lt;font style=&quot;font-size: 40px;&quot;&gt;All actors&lt;/font&gt;" style="rounded=1;whiteSpace=wrap;html=1;fillColor=#dae8fc;strokeColor=#6c8ebf;strokeWidth=3;" parent="1" vertex="1">
                    <mxGeometry x="1300" y="2660" width="640" height="100" as="geometry"/>
                </mxCell>
                <mxCell id="217" value="&lt;font style=&quot;font-size: 20px;&quot;&gt;Popular series&lt;/font&gt;" style="text;html=1;align=center;verticalAlign=middle;whiteSpace=wrap;rounded=0;" parent="1" vertex="1">
                    <mxGeometry x="905" y="2790" width="150" height="30" as="geometry"/>
                </mxCell>
                <mxCell id="218" value="&lt;font style=&quot;font-size: 20px;&quot;&gt;Popular movies&lt;/font&gt;" style="text;html=1;align=center;verticalAlign=middle;whiteSpace=wrap;rounded=0;" parent="1" vertex="1">
                    <mxGeometry x="265" y="2790" width="150" height="30" as="geometry"/>
                </mxCell>
                <mxCell id="219" value="&lt;font style=&quot;font-size: 20px;&quot;&gt;Popular actors&lt;/font&gt;" style="text;html=1;align=center;verticalAlign=middle;whiteSpace=wrap;rounded=0;" parent="1" vertex="1">
                    <mxGeometry x="1545" y="2790" width="150" height="30" as="geometry"/>
                </mxCell>
                <mxCell id="220" value="" style="sketch=0;outlineConnect=0;fontColor=#232F3E;gradientColor=none;fillColor=#ED7100;strokeColor=none;dashed=0;verticalLabelPosition=bottom;verticalAlign=top;align=center;html=1;fontSize=12;fontStyle=0;aspect=fixed;pointerEvents=1;shape=mxgraph.aws4.container_registry_image;" parent="1" vertex="1">
                    <mxGeometry x="350" y="2890" width="80" height="80" as="geometry"/>
                </mxCell>
                <mxCell id="221" value="" style="sketch=0;outlineConnect=0;fontColor=#232F3E;gradientColor=none;fillColor=#ED7100;strokeColor=none;dashed=0;verticalLabelPosition=bottom;verticalAlign=top;align=center;html=1;fontSize=12;fontStyle=0;aspect=fixed;pointerEvents=1;shape=mxgraph.aws4.container_registry_image;" parent="1" vertex="1">
                    <mxGeometry x="445" y="2890" width="80" height="80" as="geometry"/>
                </mxCell>
                <mxCell id="222" value="" style="sketch=0;outlineConnect=0;fontColor=#232F3E;gradientColor=none;fillColor=#ED7100;strokeColor=none;dashed=0;verticalLabelPosition=bottom;verticalAlign=top;align=center;html=1;fontSize=12;fontStyle=0;aspect=fixed;pointerEvents=1;shape=mxgraph.aws4.container_registry_image;" parent="1" vertex="1">
                    <mxGeometry x="350" y="2990" width="80" height="80" as="geometry"/>
                </mxCell>
                <mxCell id="223" value="" style="sketch=0;outlineConnect=0;fontColor=#232F3E;gradientColor=none;fillColor=#ED7100;strokeColor=none;dashed=0;verticalLabelPosition=bottom;verticalAlign=top;align=center;html=1;fontSize=12;fontStyle=0;aspect=fixed;pointerEvents=1;shape=mxgraph.aws4.container_registry_image;" parent="1" vertex="1">
                    <mxGeometry x="445" y="2990" width="80" height="80" as="geometry"/>
                </mxCell>
                <mxCell id="224" value="" style="sketch=0;outlineConnect=0;fontColor=#232F3E;gradientColor=none;fillColor=#ED7100;strokeColor=none;dashed=0;verticalLabelPosition=bottom;verticalAlign=top;align=center;html=1;fontSize=12;fontStyle=0;aspect=fixed;pointerEvents=1;shape=mxgraph.aws4.container_registry_image;" parent="1" vertex="1">
                    <mxGeometry x="155" y="2890" width="80" height="80" as="geometry"/>
                </mxCell>
                <mxCell id="225" value="" style="sketch=0;outlineConnect=0;fontColor=#232F3E;gradientColor=none;fillColor=#ED7100;strokeColor=none;dashed=0;verticalLabelPosition=bottom;verticalAlign=top;align=center;html=1;fontSize=12;fontStyle=0;aspect=fixed;pointerEvents=1;shape=mxgraph.aws4.container_registry_image;" parent="1" vertex="1">
                    <mxGeometry x="249.99999999999997" y="2890" width="80" height="80" as="geometry"/>
                </mxCell>
                <mxCell id="226" value="" style="sketch=0;outlineConnect=0;fontColor=#232F3E;gradientColor=none;fillColor=#ED7100;strokeColor=none;dashed=0;verticalLabelPosition=bottom;verticalAlign=top;align=center;html=1;fontSize=12;fontStyle=0;aspect=fixed;pointerEvents=1;shape=mxgraph.aws4.container_registry_image;" parent="1" vertex="1">
                    <mxGeometry x="155" y="2990" width="80" height="80" as="geometry"/>
                </mxCell>
                <mxCell id="227" value="" style="sketch=0;outlineConnect=0;fontColor=#232F3E;gradientColor=none;fillColor=#ED7100;strokeColor=none;dashed=0;verticalLabelPosition=bottom;verticalAlign=top;align=center;html=1;fontSize=12;fontStyle=0;aspect=fixed;pointerEvents=1;shape=mxgraph.aws4.container_registry_image;" parent="1" vertex="1">
                    <mxGeometry x="249.99999999999997" y="2990" width="80" height="80" as="geometry"/>
                </mxCell>
                <mxCell id="228" value="" style="sketch=0;outlineConnect=0;fontColor=#232F3E;gradientColor=none;fillColor=#ED7100;strokeColor=none;dashed=0;verticalLabelPosition=bottom;verticalAlign=top;align=center;html=1;fontSize=12;fontStyle=0;aspect=fixed;pointerEvents=1;shape=mxgraph.aws4.container_registry_image;" parent="1" vertex="1">
                    <mxGeometry x="350" y="3090" width="80" height="80" as="geometry"/>
                </mxCell>
                <mxCell id="229" value="" style="sketch=0;outlineConnect=0;fontColor=#232F3E;gradientColor=none;fillColor=#ED7100;strokeColor=none;dashed=0;verticalLabelPosition=bottom;verticalAlign=top;align=center;html=1;fontSize=12;fontStyle=0;aspect=fixed;pointerEvents=1;shape=mxgraph.aws4.container_registry_image;" parent="1" vertex="1">
                    <mxGeometry x="445" y="3090" width="80" height="80" as="geometry"/>
                </mxCell>
                <mxCell id="230" value="" style="sketch=0;outlineConnect=0;fontColor=#232F3E;gradientColor=none;fillColor=#ED7100;strokeColor=none;dashed=0;verticalLabelPosition=bottom;verticalAlign=top;align=center;html=1;fontSize=12;fontStyle=0;aspect=fixed;pointerEvents=1;shape=mxgraph.aws4.container_registry_image;" parent="1" vertex="1">
                    <mxGeometry x="155" y="3090" width="80" height="80" as="geometry"/>
                </mxCell>
                <mxCell id="231" value="" style="sketch=0;outlineConnect=0;fontColor=#232F3E;gradientColor=none;fillColor=#ED7100;strokeColor=none;dashed=0;verticalLabelPosition=bottom;verticalAlign=top;align=center;html=1;fontSize=12;fontStyle=0;aspect=fixed;pointerEvents=1;shape=mxgraph.aws4.container_registry_image;" parent="1" vertex="1">
                    <mxGeometry x="249.99999999999997" y="3090" width="80" height="80" as="geometry"/>
                </mxCell>
                <mxCell id="232" value="" style="sketch=0;outlineConnect=0;fontColor=#232F3E;gradientColor=none;fillColor=#ED7100;strokeColor=none;dashed=0;verticalLabelPosition=bottom;verticalAlign=top;align=center;html=1;fontSize=12;fontStyle=0;aspect=fixed;pointerEvents=1;shape=mxgraph.aws4.container_registry_image;" parent="1" vertex="1">
                    <mxGeometry x="1015.9000000000002" y="2890" width="80" height="80" as="geometry"/>
                </mxCell>
                <mxCell id="233" value="" style="sketch=0;outlineConnect=0;fontColor=#232F3E;gradientColor=none;fillColor=#ED7100;strokeColor=none;dashed=0;verticalLabelPosition=bottom;verticalAlign=top;align=center;html=1;fontSize=12;fontStyle=0;aspect=fixed;pointerEvents=1;shape=mxgraph.aws4.container_registry_image;" parent="1" vertex="1">
                    <mxGeometry x="1110.9" y="2890" width="80" height="80" as="geometry"/>
                </mxCell>
                <mxCell id="234" value="" style="sketch=0;outlineConnect=0;fontColor=#232F3E;gradientColor=none;fillColor=#ED7100;strokeColor=none;dashed=0;verticalLabelPosition=bottom;verticalAlign=top;align=center;html=1;fontSize=12;fontStyle=0;aspect=fixed;pointerEvents=1;shape=mxgraph.aws4.container_registry_image;" parent="1" vertex="1">
                    <mxGeometry x="1015.9000000000002" y="2990" width="80" height="80" as="geometry"/>
                </mxCell>
                <mxCell id="235" value="" style="sketch=0;outlineConnect=0;fontColor=#232F3E;gradientColor=none;fillColor=#ED7100;strokeColor=none;dashed=0;verticalLabelPosition=bottom;verticalAlign=top;align=center;html=1;fontSize=12;fontStyle=0;aspect=fixed;pointerEvents=1;shape=mxgraph.aws4.container_registry_image;" parent="1" vertex="1">
                    <mxGeometry x="1110.9" y="2990" width="80" height="80" as="geometry"/>
                </mxCell>
                <mxCell id="236" value="" style="sketch=0;outlineConnect=0;fontColor=#232F3E;gradientColor=none;fillColor=#ED7100;strokeColor=none;dashed=0;verticalLabelPosition=bottom;verticalAlign=top;align=center;html=1;fontSize=12;fontStyle=0;aspect=fixed;pointerEvents=1;shape=mxgraph.aws4.container_registry_image;" parent="1" vertex="1">
                    <mxGeometry x="820.9" y="2890" width="80" height="80" as="geometry"/>
                </mxCell>
                <mxCell id="237" value="" style="sketch=0;outlineConnect=0;fontColor=#232F3E;gradientColor=none;fillColor=#ED7100;strokeColor=none;dashed=0;verticalLabelPosition=bottom;verticalAlign=top;align=center;html=1;fontSize=12;fontStyle=0;aspect=fixed;pointerEvents=1;shape=mxgraph.aws4.container_registry_image;" parent="1" vertex="1">
                    <mxGeometry x="915.9" y="2890" width="80" height="80" as="geometry"/>
                </mxCell>
                <mxCell id="238" value="" style="sketch=0;outlineConnect=0;fontColor=#232F3E;gradientColor=none;fillColor=#ED7100;strokeColor=none;dashed=0;verticalLabelPosition=bottom;verticalAlign=top;align=center;html=1;fontSize=12;fontStyle=0;aspect=fixed;pointerEvents=1;shape=mxgraph.aws4.container_registry_image;" parent="1" vertex="1">
                    <mxGeometry x="820.9" y="2990" width="80" height="80" as="geometry"/>
                </mxCell>
                <mxCell id="239" value="" style="sketch=0;outlineConnect=0;fontColor=#232F3E;gradientColor=none;fillColor=#ED7100;strokeColor=none;dashed=0;verticalLabelPosition=bottom;verticalAlign=top;align=center;html=1;fontSize=12;fontStyle=0;aspect=fixed;pointerEvents=1;shape=mxgraph.aws4.container_registry_image;" parent="1" vertex="1">
                    <mxGeometry x="915.9" y="2990" width="80" height="80" as="geometry"/>
                </mxCell>
                <mxCell id="240" value="" style="sketch=0;outlineConnect=0;fontColor=#232F3E;gradientColor=none;fillColor=#ED7100;strokeColor=none;dashed=0;verticalLabelPosition=bottom;verticalAlign=top;align=center;html=1;fontSize=12;fontStyle=0;aspect=fixed;pointerEvents=1;shape=mxgraph.aws4.container_registry_image;" parent="1" vertex="1">
                    <mxGeometry x="1015.9000000000002" y="3090" width="80" height="80" as="geometry"/>
                </mxCell>
                <mxCell id="241" value="" style="sketch=0;outlineConnect=0;fontColor=#232F3E;gradientColor=none;fillColor=#ED7100;strokeColor=none;dashed=0;verticalLabelPosition=bottom;verticalAlign=top;align=center;html=1;fontSize=12;fontStyle=0;aspect=fixed;pointerEvents=1;shape=mxgraph.aws4.container_registry_image;" parent="1" vertex="1">
                    <mxGeometry x="1110.9" y="3090" width="80" height="80" as="geometry"/>
                </mxCell>
                <mxCell id="242" value="" style="sketch=0;outlineConnect=0;fontColor=#232F3E;gradientColor=none;fillColor=#ED7100;strokeColor=none;dashed=0;verticalLabelPosition=bottom;verticalAlign=top;align=center;html=1;fontSize=12;fontStyle=0;aspect=fixed;pointerEvents=1;shape=mxgraph.aws4.container_registry_image;" parent="1" vertex="1">
                    <mxGeometry x="820.9" y="3090" width="80" height="80" as="geometry"/>
                </mxCell>
                <mxCell id="243" value="" style="sketch=0;outlineConnect=0;fontColor=#232F3E;gradientColor=none;fillColor=#ED7100;strokeColor=none;dashed=0;verticalLabelPosition=bottom;verticalAlign=top;align=center;html=1;fontSize=12;fontStyle=0;aspect=fixed;pointerEvents=1;shape=mxgraph.aws4.container_registry_image;" parent="1" vertex="1">
                    <mxGeometry x="915.9" y="3090" width="80" height="80" as="geometry"/>
                </mxCell>
                <mxCell id="244" value="" style="sketch=0;outlineConnect=0;fontColor=#232F3E;gradientColor=none;fillColor=#ED7100;strokeColor=none;dashed=0;verticalLabelPosition=bottom;verticalAlign=top;align=center;html=1;fontSize=12;fontStyle=0;aspect=fixed;pointerEvents=1;shape=mxgraph.aws4.container_registry_image;" parent="1" vertex="1">
                    <mxGeometry x="1630" y="2890" width="80" height="80" as="geometry"/>
                </mxCell>
                <mxCell id="245" value="" style="sketch=0;outlineConnect=0;fontColor=#232F3E;gradientColor=none;fillColor=#ED7100;strokeColor=none;dashed=0;verticalLabelPosition=bottom;verticalAlign=top;align=center;html=1;fontSize=12;fontStyle=0;aspect=fixed;pointerEvents=1;shape=mxgraph.aws4.container_registry_image;" parent="1" vertex="1">
                    <mxGeometry x="1725" y="2890" width="80" height="80" as="geometry"/>
                </mxCell>
                <mxCell id="246" value="" style="sketch=0;outlineConnect=0;fontColor=#232F3E;gradientColor=none;fillColor=#ED7100;strokeColor=none;dashed=0;verticalLabelPosition=bottom;verticalAlign=top;align=center;html=1;fontSize=12;fontStyle=0;aspect=fixed;pointerEvents=1;shape=mxgraph.aws4.container_registry_image;" parent="1" vertex="1">
                    <mxGeometry x="1630" y="2990" width="80" height="80" as="geometry"/>
                </mxCell>
                <mxCell id="247" value="" style="sketch=0;outlineConnect=0;fontColor=#232F3E;gradientColor=none;fillColor=#ED7100;strokeColor=none;dashed=0;verticalLabelPosition=bottom;verticalAlign=top;align=center;html=1;fontSize=12;fontStyle=0;aspect=fixed;pointerEvents=1;shape=mxgraph.aws4.container_registry_image;" parent="1" vertex="1">
                    <mxGeometry x="1725" y="2990" width="80" height="80" as="geometry"/>
                </mxCell>
                <mxCell id="248" value="" style="sketch=0;outlineConnect=0;fontColor=#232F3E;gradientColor=none;fillColor=#ED7100;strokeColor=none;dashed=0;verticalLabelPosition=bottom;verticalAlign=top;align=center;html=1;fontSize=12;fontStyle=0;aspect=fixed;pointerEvents=1;shape=mxgraph.aws4.container_registry_image;" parent="1" vertex="1">
                    <mxGeometry x="1435" y="2890" width="80" height="80" as="geometry"/>
                </mxCell>
                <mxCell id="249" value="" style="sketch=0;outlineConnect=0;fontColor=#232F3E;gradientColor=none;fillColor=#ED7100;strokeColor=none;dashed=0;verticalLabelPosition=bottom;verticalAlign=top;align=center;html=1;fontSize=12;fontStyle=0;aspect=fixed;pointerEvents=1;shape=mxgraph.aws4.container_registry_image;" parent="1" vertex="1">
                    <mxGeometry x="1530" y="2890" width="80" height="80" as="geometry"/>
                </mxCell>
                <mxCell id="250" value="" style="sketch=0;outlineConnect=0;fontColor=#232F3E;gradientColor=none;fillColor=#ED7100;strokeColor=none;dashed=0;verticalLabelPosition=bottom;verticalAlign=top;align=center;html=1;fontSize=12;fontStyle=0;aspect=fixed;pointerEvents=1;shape=mxgraph.aws4.container_registry_image;" parent="1" vertex="1">
                    <mxGeometry x="1435" y="2990" width="80" height="80" as="geometry"/>
                </mxCell>
                <mxCell id="251" value="" style="sketch=0;outlineConnect=0;fontColor=#232F3E;gradientColor=none;fillColor=#ED7100;strokeColor=none;dashed=0;verticalLabelPosition=bottom;verticalAlign=top;align=center;html=1;fontSize=12;fontStyle=0;aspect=fixed;pointerEvents=1;shape=mxgraph.aws4.container_registry_image;" parent="1" vertex="1">
                    <mxGeometry x="1530" y="2990" width="80" height="80" as="geometry"/>
                </mxCell>
                <mxCell id="252" value="" style="sketch=0;outlineConnect=0;fontColor=#232F3E;gradientColor=none;fillColor=#ED7100;strokeColor=none;dashed=0;verticalLabelPosition=bottom;verticalAlign=top;align=center;html=1;fontSize=12;fontStyle=0;aspect=fixed;pointerEvents=1;shape=mxgraph.aws4.container_registry_image;" parent="1" vertex="1">
                    <mxGeometry x="1630" y="3090" width="80" height="80" as="geometry"/>
                </mxCell>
                <mxCell id="253" value="" style="sketch=0;outlineConnect=0;fontColor=#232F3E;gradientColor=none;fillColor=#ED7100;strokeColor=none;dashed=0;verticalLabelPosition=bottom;verticalAlign=top;align=center;html=1;fontSize=12;fontStyle=0;aspect=fixed;pointerEvents=1;shape=mxgraph.aws4.container_registry_image;" parent="1" vertex="1">
                    <mxGeometry x="1725" y="3090" width="80" height="80" as="geometry"/>
                </mxCell>
                <mxCell id="254" value="" style="sketch=0;outlineConnect=0;fontColor=#232F3E;gradientColor=none;fillColor=#ED7100;strokeColor=none;dashed=0;verticalLabelPosition=bottom;verticalAlign=top;align=center;html=1;fontSize=12;fontStyle=0;aspect=fixed;pointerEvents=1;shape=mxgraph.aws4.container_registry_image;" parent="1" vertex="1">
                    <mxGeometry x="1435" y="3090" width="80" height="80" as="geometry"/>
                </mxCell>
                <mxCell id="255" value="" style="sketch=0;outlineConnect=0;fontColor=#232F3E;gradientColor=none;fillColor=#ED7100;strokeColor=none;dashed=0;verticalLabelPosition=bottom;verticalAlign=top;align=center;html=1;fontSize=12;fontStyle=0;aspect=fixed;pointerEvents=1;shape=mxgraph.aws4.container_registry_image;" parent="1" vertex="1">
                    <mxGeometry x="1530" y="3090" width="80" height="80" as="geometry"/>
                </mxCell>
                <mxCell id="256" value="" style="dashed=0;outlineConnect=0;html=1;align=center;labelPosition=center;verticalLabelPosition=bottom;verticalAlign=top;shape=mxgraph.webicons.facebook;fillColor=#6294E4;gradientColor=#1A2665" parent="1" vertex="1">
                    <mxGeometry x="1815.79" y="3370" width="50" height="50" as="geometry"/>
                </mxCell>
                <mxCell id="257" value="" style="dashed=0;outlineConnect=0;html=1;align=center;labelPosition=center;verticalLabelPosition=bottom;verticalAlign=top;shape=mxgraph.weblogos.instagram;fillColor=#6FC0E4;gradientColor=#1E305B" parent="1" vertex="1">
                    <mxGeometry x="1755.79" y="3370" width="50" height="50" as="geometry"/>
                </mxCell>
                <mxCell id="258" value="" style="dashed=0;outlineConnect=0;html=1;align=center;labelPosition=center;verticalLabelPosition=bottom;verticalAlign=top;shape=mxgraph.webicons.twitter;fillColor=#49EAF7;strokeColor=none;gradientColor=#137BD0;" parent="1" vertex="1">
                    <mxGeometry x="1875.79" y="3370" width="50" height="50" as="geometry"/>
                </mxCell>
                <mxCell id="259" value="copyrights" style="rounded=0;whiteSpace=wrap;html=1;" parent="1" vertex="1">
                    <mxGeometry x="877.5" y="3372.5" width="205" height="47.5" as="geometry"/>
                </mxCell>
                <mxCell id="260" value="" style="strokeColor=#999999;verticalLabelPosition=bottom;shadow=0;dashed=0;verticalAlign=top;strokeWidth=2;html=1;shape=mxgraph.mockup.misc.copyrightIcon;" parent="1" vertex="1">
                    <mxGeometry x="897.5" y="3383.75" width="25" height="25" as="geometry"/>
                </mxCell>
                <mxCell id="261" value="about" style="rounded=0;whiteSpace=wrap;html=1;" parent="1" vertex="1">
                    <mxGeometry x="680" y="3280" width="600" height="60" as="geometry"/>
                </mxCell>
                <mxCell id="266" value="" style="group" parent="1" vertex="1" connectable="0">
                    <mxGeometry x="1710.79" y="2440" width="140" height="140" as="geometry"/>
                </mxCell>
                <mxCell id="267" value="" style="ellipse;whiteSpace=wrap;html=1;aspect=fixed;" parent="266" vertex="1">
                    <mxGeometry width="131.25" height="131.25" as="geometry"/>
                </mxCell>
                <mxCell id="268" value="" style="shape=umlActor;verticalLabelPosition=bottom;verticalAlign=top;html=1;outlineConnect=0;" parent="266" vertex="1">
                    <mxGeometry x="43.75" y="17.5" width="52.5" height="105" as="geometry"/>
                </mxCell>
                <mxCell id="270" value="&lt;font style=&quot;font-size: 16px;&quot;&gt;Index (page d&#39;accueil) on computer&lt;/font&gt;" style="text;html=1;align=center;verticalAlign=middle;resizable=0;points=[];autosize=1;strokeColor=none;fillColor=none;" parent="1" vertex="1">
                    <mxGeometry x="20" y="1170" width="270" height="30" as="geometry"/>
                </mxCell>
                <mxCell id="271" value="&lt;font style=&quot;font-size: 16px;&quot;&gt;Index (page d&#39;accueil) When connected on computer&lt;/font&gt;" style="text;html=1;align=center;verticalAlign=middle;resizable=0;points=[];autosize=1;strokeColor=none;fillColor=none;" parent="1" vertex="1">
                    <mxGeometry x="20" y="2330" width="400" height="30" as="geometry"/>
                </mxCell>
                <mxCell id="272" value="" style="sketch=0;outlineConnect=0;fontColor=#232F3E;gradientColor=none;fillColor=#ED7100;strokeColor=none;dashed=0;verticalLabelPosition=bottom;verticalAlign=top;align=center;html=1;fontSize=12;fontStyle=0;aspect=fixed;pointerEvents=1;shape=mxgraph.aws4.container_registry_image;" parent="1" vertex="1">
                    <mxGeometry x="85" y="680" width="80" height="80" as="geometry"/>
                </mxCell>
                <mxCell id="273" value="" style="sketch=0;outlineConnect=0;fontColor=#232F3E;gradientColor=none;fillColor=#ED7100;strokeColor=none;dashed=0;verticalLabelPosition=bottom;verticalAlign=top;align=center;html=1;fontSize=12;fontStyle=0;aspect=fixed;pointerEvents=1;shape=mxgraph.aws4.container_registry_image;" parent="1" vertex="1">
                    <mxGeometry x="185" y="680" width="80" height="80" as="geometry"/>
                </mxCell>
                <mxCell id="274" value="" style="sketch=0;outlineConnect=0;fontColor=#232F3E;gradientColor=none;fillColor=#ED7100;strokeColor=none;dashed=0;verticalLabelPosition=bottom;verticalAlign=top;align=center;html=1;fontSize=12;fontStyle=0;aspect=fixed;pointerEvents=1;shape=mxgraph.aws4.container_registry_image;" parent="1" vertex="1">
                    <mxGeometry x="285" y="680" width="80" height="80" as="geometry"/>
                </mxCell>
                <mxCell id="275" value="" style="sketch=0;outlineConnect=0;fontColor=#232F3E;gradientColor=none;fillColor=#ED7100;strokeColor=none;dashed=0;verticalLabelPosition=bottom;verticalAlign=top;align=center;html=1;fontSize=12;fontStyle=0;aspect=fixed;pointerEvents=1;shape=mxgraph.aws4.container_registry_image;" parent="1" vertex="1">
                    <mxGeometry x="385" y="680" width="80" height="80" as="geometry"/>
                </mxCell>
                <mxCell id="276" value="Popular&amp;nbsp;&lt;span style=&quot;color: rgb(0, 0, 0);&quot;&gt;actors&lt;/span&gt;" style="text;html=1;align=center;verticalAlign=middle;whiteSpace=wrap;rounded=0;" parent="1" vertex="1">
                    <mxGeometry x="200" y="640" width="150" height="30" as="geometry"/>
                </mxCell>
                <mxCell id="277" value="" style="sketch=0;outlineConnect=0;fontColor=#232F3E;gradientColor=none;fillColor=#ED7100;strokeColor=none;dashed=0;verticalLabelPosition=bottom;verticalAlign=top;align=center;html=1;fontSize=12;fontStyle=0;aspect=fixed;pointerEvents=1;shape=mxgraph.aws4.container_registry_image;" parent="1" vertex="1">
                    <mxGeometry x="685" y="680" width="80" height="80" as="geometry"/>
                </mxCell>
                <mxCell id="278" value="" style="sketch=0;outlineConnect=0;fontColor=#232F3E;gradientColor=none;fillColor=#ED7100;strokeColor=none;dashed=0;verticalLabelPosition=bottom;verticalAlign=top;align=center;html=1;fontSize=12;fontStyle=0;aspect=fixed;pointerEvents=1;shape=mxgraph.aws4.container_registry_image;" parent="1" vertex="1">
                    <mxGeometry x="785" y="680" width="80" height="80" as="geometry"/>
                </mxCell>
                <mxCell id="279" value="" style="sketch=0;outlineConnect=0;fontColor=#232F3E;gradientColor=none;fillColor=#ED7100;strokeColor=none;dashed=0;verticalLabelPosition=bottom;verticalAlign=top;align=center;html=1;fontSize=12;fontStyle=0;aspect=fixed;pointerEvents=1;shape=mxgraph.aws4.container_registry_image;" parent="1" vertex="1">
                    <mxGeometry x="885" y="680" width="80" height="80" as="geometry"/>
                </mxCell>
                <mxCell id="280" value="" style="sketch=0;outlineConnect=0;fontColor=#232F3E;gradientColor=none;fillColor=#ED7100;strokeColor=none;dashed=0;verticalLabelPosition=bottom;verticalAlign=top;align=center;html=1;fontSize=12;fontStyle=0;aspect=fixed;pointerEvents=1;shape=mxgraph.aws4.container_registry_image;" parent="1" vertex="1">
                    <mxGeometry x="985" y="680" width="80" height="80" as="geometry"/>
                </mxCell>
                <mxCell id="281" value="Popular actors" style="text;html=1;align=center;verticalAlign=middle;whiteSpace=wrap;rounded=0;" parent="1" vertex="1">
                    <mxGeometry x="800" y="640" width="150" height="30" as="geometry"/>
                </mxCell>
                <mxCell id="285" value="" style="dashed=0;outlineConnect=0;html=1;align=center;labelPosition=center;verticalLabelPosition=bottom;verticalAlign=top;shape=mxgraph.webicons.facebook;fillColor=#6294E4;gradientColor=#1A2665" parent="1" vertex="1">
                    <mxGeometry x="422" y="830" width="40" height="40" as="geometry"/>
                </mxCell>
                <mxCell id="286" value="" style="dashed=0;outlineConnect=0;html=1;align=center;labelPosition=center;verticalLabelPosition=bottom;verticalAlign=top;shape=mxgraph.weblogos.instagram;fillColor=#6FC0E4;gradientColor=#1E305B" parent="1" vertex="1">
                    <mxGeometry x="372" y="830" width="40" height="40" as="geometry"/>
                </mxCell>
                <mxCell id="287" value="" style="dashed=0;outlineConnect=0;html=1;align=center;labelPosition=center;verticalLabelPosition=bottom;verticalAlign=top;shape=mxgraph.webicons.twitter;fillColor=#49EAF7;strokeColor=none;gradientColor=#137BD0;" parent="1" vertex="1">
                    <mxGeometry x="470" y="830" width="40" height="40" as="geometry"/>
                </mxCell>
                <mxCell id="291" value="" style="rounded=0;whiteSpace=wrap;html=1;fillColor=#d5e8d4;strokeColor=#82b366;" parent="1" vertex="1">
                    <mxGeometry x="640" y="810" width="480" height="80" as="geometry"/>
                </mxCell>
                <mxCell id="292" value="copyrights" style="rounded=0;whiteSpace=wrap;html=1;" parent="1" vertex="1">
                    <mxGeometry x="810" y="865" width="140" height="20" as="geometry"/>
                </mxCell>
                <mxCell id="293" value="about" style="rounded=0;whiteSpace=wrap;html=1;" parent="1" vertex="1">
                    <mxGeometry x="660" y="824" width="300" height="30" as="geometry"/>
                </mxCell>
                <mxCell id="294" value="" style="dashed=0;outlineConnect=0;html=1;align=center;labelPosition=center;verticalLabelPosition=bottom;verticalAlign=top;shape=mxgraph.webicons.facebook;fillColor=#6294E4;gradientColor=#1A2665" parent="1" vertex="1">
                    <mxGeometry x="1022" y="830" width="40" height="40" as="geometry"/>
                </mxCell>
                <mxCell id="295" value="" style="dashed=0;outlineConnect=0;html=1;align=center;labelPosition=center;verticalLabelPosition=bottom;verticalAlign=top;shape=mxgraph.weblogos.instagram;fillColor=#6FC0E4;gradientColor=#1E305B" parent="1" vertex="1">
                    <mxGeometry x="972" y="830" width="40" height="40" as="geometry"/>
                </mxCell>
                <mxCell id="296" value="" style="dashed=0;outlineConnect=0;html=1;align=center;labelPosition=center;verticalLabelPosition=bottom;verticalAlign=top;shape=mxgraph.webicons.twitter;fillColor=#49EAF7;strokeColor=none;gradientColor=#137BD0;" parent="1" vertex="1">
                    <mxGeometry x="1070" y="830" width="40" height="40" as="geometry"/>
                </mxCell>
                <mxCell id="297" value="" style="strokeColor=#999999;verticalLabelPosition=bottom;shadow=0;dashed=0;verticalAlign=top;strokeWidth=2;html=1;shape=mxgraph.mockup.misc.copyrightIcon;" parent="1" vertex="1">
                    <mxGeometry x="815" y="867.5" width="15" height="15" as="geometry"/>
                </mxCell>
                <mxCell id="298" value="" style="strokeColor=#999999;verticalLabelPosition=bottom;shadow=0;dashed=0;verticalAlign=top;strokeWidth=2;html=1;shape=mxgraph.mockup.misc.copyrightIcon;" parent="1" vertex="1">
                    <mxGeometry x="215" y="867.5" width="15" height="15" as="geometry"/>
                </mxCell>
                <mxCell id="299" value="" style="html=1;verticalLabelPosition=bottom;labelBackgroundColor=#ffffff;verticalAlign=top;shadow=0;dashed=0;strokeWidth=2;shape=mxgraph.ios7.misc.right;strokeColor=#0080f0;direction=west;" parent="1" vertex="1">
                    <mxGeometry x="60" y="364.25" width="16" height="51.5" as="geometry"/>
                </mxCell>
                <mxCell id="300" value="" style="html=1;verticalLabelPosition=bottom;labelBackgroundColor=#ffffff;verticalAlign=top;shadow=0;dashed=0;strokeWidth=2;shape=mxgraph.ios7.misc.right;strokeColor=#0080f0;direction=west;" parent="1" vertex="1">
                    <mxGeometry x="60" y="524.25" width="16" height="51.5" as="geometry"/>
                </mxCell>
                <mxCell id="301" value="" style="html=1;verticalLabelPosition=bottom;labelBackgroundColor=#ffffff;verticalAlign=top;shadow=0;dashed=0;strokeWidth=2;shape=mxgraph.ios7.misc.right;strokeColor=#0080f0;direction=west;" parent="1" vertex="1">
                    <mxGeometry x="60" y="694.25" width="16" height="51.5" as="geometry"/>
                </mxCell>
                <mxCell id="302" value="" style="html=1;verticalLabelPosition=bottom;labelBackgroundColor=#ffffff;verticalAlign=top;shadow=0;dashed=0;strokeWidth=2;shape=mxgraph.ios7.misc.right;strokeColor=#0080f0;direction=west;" parent="1" vertex="1">
                    <mxGeometry x="660" y="694.25" width="16" height="51.5" as="geometry"/>
                </mxCell>
                <mxCell id="303" value="" style="html=1;verticalLabelPosition=bottom;labelBackgroundColor=#ffffff;verticalAlign=top;shadow=0;dashed=0;strokeWidth=2;shape=mxgraph.ios7.misc.right;strokeColor=#0080f0;direction=west;" parent="1" vertex="1">
                    <mxGeometry x="660" y="524.25" width="16" height="51.5" as="geometry"/>
                </mxCell>
                <mxCell id="304" value="" style="html=1;verticalLabelPosition=bottom;labelBackgroundColor=#ffffff;verticalAlign=top;shadow=0;dashed=0;strokeWidth=2;shape=mxgraph.ios7.misc.right;strokeColor=#0080f0;direction=west;" parent="1" vertex="1">
                    <mxGeometry x="660" y="364.25" width="16" height="51.5" as="geometry"/>
                </mxCell>
                <mxCell id="305" value="" style="html=1;verticalLabelPosition=bottom;labelBackgroundColor=#ffffff;verticalAlign=top;shadow=0;dashed=0;strokeWidth=2;shape=mxgraph.ios7.misc.right;strokeColor=#0080f0;direction=east;" parent="1" vertex="1">
                    <mxGeometry x="1082" y="694.25" width="16" height="51.5" as="geometry"/>
                </mxCell>
                <mxCell id="306" value="" style="html=1;verticalLabelPosition=bottom;labelBackgroundColor=#ffffff;verticalAlign=top;shadow=0;dashed=0;strokeWidth=2;shape=mxgraph.ios7.misc.right;strokeColor=#0080f0;direction=east;" parent="1" vertex="1">
                    <mxGeometry x="1082" y="524.25" width="16" height="51.5" as="geometry"/>
                </mxCell>
                <mxCell id="307" value="" style="html=1;verticalLabelPosition=bottom;labelBackgroundColor=#ffffff;verticalAlign=top;shadow=0;dashed=0;strokeWidth=2;shape=mxgraph.ios7.misc.right;strokeColor=#0080f0;direction=east;" parent="1" vertex="1">
                    <mxGeometry x="1082" y="364.25" width="16" height="51.5" as="geometry"/>
                </mxCell>
                <mxCell id="308" value="" style="html=1;verticalLabelPosition=bottom;labelBackgroundColor=#ffffff;verticalAlign=top;shadow=0;dashed=0;strokeWidth=2;shape=mxgraph.ios7.misc.right;strokeColor=#0080f0;direction=east;" parent="1" vertex="1">
                    <mxGeometry x="482" y="364.25" width="16" height="51.5" as="geometry"/>
                </mxCell>
                <mxCell id="309" value="" style="html=1;verticalLabelPosition=bottom;labelBackgroundColor=#ffffff;verticalAlign=top;shadow=0;dashed=0;strokeWidth=2;shape=mxgraph.ios7.misc.right;strokeColor=#0080f0;direction=east;" parent="1" vertex="1">
                    <mxGeometry x="482" y="524.25" width="16" height="51.5" as="geometry"/>
                </mxCell>
                <mxCell id="310" value="" style="html=1;verticalLabelPosition=bottom;labelBackgroundColor=#ffffff;verticalAlign=top;shadow=0;dashed=0;strokeWidth=2;shape=mxgraph.ios7.misc.right;strokeColor=#0080f0;direction=east;" parent="1" vertex="1">
                    <mxGeometry x="482" y="694.25" width="16" height="51.5" as="geometry"/>
                </mxCell>
            </root>
        </mxGraphModel>
    </diagram>
</mxfile>
